<!DOCTYPE svg PUBLIC "-//W3C//DTD SVG 1.1//EN" "http://www.w3.org/Graphics/SVG/1.1/DTD/svg11.dtd">
<!-- Uploaded to: SVG Repo, www.svgrepo.com, Transformed by: SVG Repo Mixer Tools -->
<svg version="1.1" id="Layer_1" xmlns="http://www.w3.org/2000/svg" xmlns:xlink="http://www.w3.org/1999/xlink" viewBox="0 0 512 512" xml:space="preserve" width="800px" height="800px" fill="#000000">
<g id="SVGRepo_bgCarrier" stroke-width="0"/>
<g id="SVGRepo_tracerCarrier" stroke-linecap="round" stroke-linejoin="round"/>
<g id="SVGRepo_iconCarrier"> <polygon style="fill:#DCE5F7;" points="221.585,58.289 195.03,58.289 243.158,145.419 443.17,145.419 443.17,129.75 443.17,58.289 "/> <polygon style="fill:#050C9C;" points="261.647,114.086 221.587,41.55 220.511,39.607 0,39.607 0,378.261 310.377,378.261 443.175,378.261 443.175,274.92 443.175,270.558 443.175,114.086 "/> <polygon style="fill:#050C9C;" points="261.647,114.086 221.587,41.55 221.587,378.261 310.377,378.261 443.175,378.261 443.175,274.92 443.175,270.558 443.175,114.086 "/> <path style="fill:#DCE5F7;" d="M512,367.026c0,58.194-47.173,105.367-105.367,105.367c-0.251,0-0.501,0-0.752-0.01 c-28.465-0.188-54.235-11.678-73.079-30.199c-16.922-16.63-28.256-38.921-30.92-63.824c-0.397-3.719-0.616-7.5-0.616-11.334 c0-31.578,13.903-59.907,35.902-79.221c0.24-0.209,0.48-0.418,0.721-0.616c8.576-7.396,18.364-13.423,29.008-17.768 c12.044-4.899,25.195-7.657,38.984-7.74c0.251-0.01,0.501-0.01,0.752-0.01C464.827,261.669,512,308.832,512,367.026z"/> <path id="SVGCleanerId_0" style="fill:#DCE5F7;" d="M512,367.026c0,58.194-47.173,105.367-105.367,105.367 c-0.251,0-0.501,0-0.752-0.01V261.68c0.251-0.01,0.501-0.01,0.752-0.01C464.827,261.669,512,308.832,512,367.026z"/> <g> <path id="SVGCleanerId_0_1_" style="fill:#DCE5F7;" d="M512,367.026c0,58.194-47.173,105.367-105.367,105.367 c-0.251,0-0.501,0-0.752-0.01V261.68c0.251-0.01,0.501-0.01,0.752-0.01C464.827,261.669,512,308.832,512,367.026z"/> </g> <path style="fill:#FFFFFF;" d="M406.236,290.782h-0.355c-21.665,0.188-39.234,17.873-39.234,39.579v40.76h79.169v-40.76 C445.815,308.54,428.057,290.782,406.236,290.782z M414.478,339.783h-16.494v-9.422c0-4.429,3.52-8.054,7.897-8.231 c0.115-0.01,0.24-0.01,0.355-0.01c4.544,0,8.242,3.698,8.242,8.242V339.783z"/> <path style="fill:#FFFFFF;" d="M445.815,330.361v40.76h-39.934v-31.337h8.597v-9.422c0-4.544-3.698-8.242-8.242-8.242 c-0.115,0-0.24,0-0.355,0.01v-31.348h0.355C428.057,290.782,445.815,308.54,445.815,330.361z"/> <rect x="356.286" y="339.782" style="fill:#050C9C;" width="99.194" height="88.591"/> <rect x="405.883" y="339.782" style="fill:#050C9C;" width="49.597" height="88.591"/> <path style="fill:#FFFFFF;" d="M417.34,374.704c0,4.659-2.779,8.66-6.758,10.456v14.635h-9.401V385.16 c-3.99-1.797-6.769-5.797-6.769-10.456c0-6.33,5.129-11.47,11.47-11.47C412.211,363.234,417.34,368.374,417.34,374.704z"/> <path style="fill:#FFFFFF;" d="M417.34,374.704c0,4.659-2.779,8.66-6.758,10.456v14.635h-4.701v-36.56 C412.211,363.234,417.34,368.374,417.34,374.704z"/> </g>
</svg>